<?xml version="1.0" standalone="no"?>
<!DOCTYPE svg PUBLIC "-//W3C//DTD SVG 20010904//EN"
 "http://www.w3.org/TR/2001/REC-SVG-20010904/DTD/svg10.dtd">
<svg version="1.0" xmlns="http://www.w3.org/2000/svg"
 width="194.000000pt" height="194.000000pt" viewBox="0 0 194.000000 194.000000"
 preserveAspectRatio="xMidYMid meet">
<metadata>
Created by potrace 1.14, written by Peter Selinger 2001-2017
</metadata>
<g transform="translate(0.000000,194.000000) scale(0.100000,-0.100000)"
fill="#000000" stroke="none">
<path d="M1316 1923 c-1 -1 -99 -3 -219 -4 -120 -1 -219 -5 -222 -8 -2 -4 -6
-18 -9 -32 -16 -79 -39 -184 -41 -187 -1 -1 -2 26 -2 60 0 67 -16 109 -53 143
-20 18 -37 20 -206 20 -102 1 -189 -2 -195 -6 -9 -5 -29 -86 -54 -219 -3 -14
-11 -51 -19 -82 l-13 -58 26 -1 c14 -1 34 -2 44 -2 14 0 17 -5 13 -21 -2 -11
-27 -131 -55 -266 -28 -135 -62 -299 -76 -365 -14 -65 -28 -133 -31 -150 -2
-16 -7 -37 -9 -45 -2 -8 -7 -31 -10 -50 -3 -19 -10 -51 -15 -70 -5 -19 -11
-46 -14 -60 -2 -14 -21 -104 -40 -200 -20 -96 -39 -188 -41 -205 -3 -16 -8
-42 -11 -57 -5 -25 -3 -27 39 -33 58 -9 377 51 377 71 0 20 14 24 51 13 34
-11 92 -1 589 97 69 13 136 26 150 29 14 3 48 9 75 15 28 6 61 12 75 15 129
24 128 24 135 63 3 20 17 82 30 136 22 90 23 102 9 128 -14 27 -17 28 -67 23
-29 -2 -61 -7 -72 -9 -11 -2 -40 -7 -65 -11 -25 -4 -54 -9 -65 -11 -50 -8
-164 -26 -200 -31 -22 -3 -59 -9 -83 -13 l-43 -8 6 35 c47 301 109 392 275
408 36 3 76 8 90 10 14 2 45 6 70 9 113 15 164 40 229 113 79 88 166 283 188
421 5 26 8 94 8 152 0 96 -3 109 -28 156 -46 83 -54 85 -303 87 -119 1 -217 1
-218 0z m-481 -347 c29 -15 23 -15 412 -1 148 5 152 5 164 -16 23 -44 -9 -159
-60 -212 -19 -20 -29 -22 -126 -31 -157 -15 -182 -18 -223 -32 -145 -48 -227
-131 -309 -314 -40 -87 -40 -91 21 190 26 118 49 224 52 235 2 11 9 45 15 75
17 83 17 84 18 103 1 21 2 21 36 3z"/>
</g>
</svg>
